# xmcd
#
# Track frame offsets: 
#        150
#        15326
#        25640
#        41304
#        55888
#        70981
#        84576
#        102566
#
# Disc length: 1566 seconds
#
# Revision: 0
# Processed by: cddbd v1.5.2PL0 Copyright (c) Steve Scherf et al.
# Submitted via: ExactAudioCopy v1.1
#
DISCID=59061c08
DTITLE=Jay Willie Blues Band - The Reel Deal
DYEAR=2010
DGENRE=Blues Rock
TTITLE0=Hey Hey Baby
TTITLE1=The Reel Deal
TTITLE2=Rainin In My Heart
TTITLE3=Mary Lou
TTITLE4=Aint Gonna Walk Your Dog Anymore
TTITLE5=Liar
TTITLE6=Stoop Down Baby
TTITLE7=A Woman Named Trouble
EXTD=
EXTT0=
EXTT1=
EXTT2=
EXTT3=
EXTT4=
EXTT5=
EXTT6=
EXTT7=
PLAYORDER=
